<mxfile host="app.diagrams.net" modified="2021-03-19T13:06:21.857Z" agent="5.0 (Windows NT 10.0; Win64; x64) AppleWebKit/537.36 (KHTML, like Gecko) Chrome/89.0.4389.90 Safari/537.36" etag="6utM0ZoRHk8TuPH704nr" version="14.4.9" type="github">
  <diagram id="cEs8rd1fQMCq604UEnfG" name="Page-1">
    <mxGraphModel dx="1550" dy="836" grid="1" gridSize="10" guides="1" tooltips="1" connect="1" arrows="1" fold="1" page="1" pageScale="1" pageWidth="827" pageHeight="1169" math="0" shadow="0">
      <root>
        <mxCell id="0" />
        <mxCell id="1" parent="0" />
        <mxCell id="_dTATX6zxYiCM6BDV4s--37" value="" style="rounded=0;whiteSpace=wrap;html=1;gradientColor=none;fillColor=#FFFFFF;" vertex="1" parent="1">
          <mxGeometry x="110" y="120" width="610" height="720" as="geometry" />
        </mxCell>
        <mxCell id="_dTATX6zxYiCM6BDV4s--1" value="&lt;font style=&quot;font-size: 14px&quot;&gt;Utilisateur&lt;/font&gt;" style="shape=umlActor;verticalLabelPosition=bottom;verticalAlign=top;html=1;outlineConnect=0;" vertex="1" parent="1">
          <mxGeometry x="20" y="370" width="50" height="110" as="geometry" />
        </mxCell>
        <mxCell id="_dTATX6zxYiCM6BDV4s--2" value="&lt;font style=&quot;font-size: 15px&quot;&gt;Admin&lt;/font&gt;" style="shape=umlActor;verticalLabelPosition=bottom;verticalAlign=top;html=1;outlineConnect=0;" vertex="1" parent="1">
          <mxGeometry x="760" y="370" width="50" height="110" as="geometry" />
        </mxCell>
        <mxCell id="_dTATX6zxYiCM6BDV4s--10" value="" style="ellipse;whiteSpace=wrap;html=1;fillColor=#E8E8E8;" vertex="1" parent="1">
          <mxGeometry x="359" y="200" width="110" height="60" as="geometry" />
        </mxCell>
        <mxCell id="_dTATX6zxYiCM6BDV4s--11" value="" style="ellipse;whiteSpace=wrap;html=1;fillColor=#E8E8E8;" vertex="1" parent="1">
          <mxGeometry x="359" y="310" width="110" height="60" as="geometry" />
        </mxCell>
        <mxCell id="_dTATX6zxYiCM6BDV4s--12" value="" style="ellipse;whiteSpace=wrap;html=1;fillColor=#E8E8E8;" vertex="1" parent="1">
          <mxGeometry x="180" y="500" width="110" height="60" as="geometry" />
        </mxCell>
        <mxCell id="_dTATX6zxYiCM6BDV4s--13" value="" style="ellipse;whiteSpace=wrap;html=1;fillColor=#E8E8E8;" vertex="1" parent="1">
          <mxGeometry x="540" y="500" width="110" height="60" as="geometry" />
        </mxCell>
        <mxCell id="_dTATX6zxYiCM6BDV4s--14" value="" style="ellipse;whiteSpace=wrap;html=1;fillColor=#E8E8E8;" vertex="1" parent="1">
          <mxGeometry x="359" y="420" width="110" height="60" as="geometry" />
        </mxCell>
        <mxCell id="_dTATX6zxYiCM6BDV4s--15" value="" style="ellipse;whiteSpace=wrap;html=1;fillColor=#E8E8E8;" vertex="1" parent="1">
          <mxGeometry x="540" y="610" width="110" height="60" as="geometry" />
        </mxCell>
        <mxCell id="_dTATX6zxYiCM6BDV4s--16" value="" style="ellipse;whiteSpace=wrap;html=1;fillColor=#E8E8E8;" vertex="1" parent="1">
          <mxGeometry x="540" y="720" width="110" height="60" as="geometry" />
        </mxCell>
        <mxCell id="_dTATX6zxYiCM6BDV4s--17" value="&lt;font style=&quot;font-size: 13px&quot;&gt;Inscription à un évènement&lt;/font&gt;" style="text;html=1;strokeColor=none;fillColor=none;align=center;verticalAlign=middle;whiteSpace=wrap;rounded=0;" vertex="1" parent="1">
          <mxGeometry x="187.5" y="565" width="95" height="20" as="geometry" />
        </mxCell>
        <mxCell id="_dTATX6zxYiCM6BDV4s--18" value="&lt;font style=&quot;font-size: 20px&quot;&gt;Logiciel d&#39;évènements&lt;/font&gt;" style="text;html=1;strokeColor=none;fillColor=none;align=center;verticalAlign=middle;whiteSpace=wrap;rounded=0;" vertex="1" parent="1">
          <mxGeometry x="294" y="140" width="240" height="20" as="geometry" />
        </mxCell>
        <mxCell id="_dTATX6zxYiCM6BDV4s--19" value="&lt;span style=&quot;font-size: 13px&quot;&gt;connexion&lt;/span&gt;" style="text;html=1;strokeColor=none;fillColor=none;align=center;verticalAlign=middle;whiteSpace=wrap;rounded=0;" vertex="1" parent="1">
          <mxGeometry x="366.5" y="260" width="95" height="20" as="geometry" />
        </mxCell>
        <mxCell id="_dTATX6zxYiCM6BDV4s--20" value="&lt;font style=&quot;font-size: 13px&quot;&gt;ajouter&lt;/font&gt;" style="text;html=1;strokeColor=none;fillColor=none;align=center;verticalAlign=middle;whiteSpace=wrap;rounded=0;" vertex="1" parent="1">
          <mxGeometry x="547.5" y="560" width="95" height="20" as="geometry" />
        </mxCell>
        <mxCell id="_dTATX6zxYiCM6BDV4s--21" value="&lt;font style=&quot;font-size: 13px&quot;&gt;afficher la liste&lt;/font&gt;" style="text;html=1;strokeColor=none;fillColor=none;align=center;verticalAlign=middle;whiteSpace=wrap;rounded=0;" vertex="1" parent="1">
          <mxGeometry x="366.5" y="370" width="95" height="20" as="geometry" />
        </mxCell>
        <mxCell id="_dTATX6zxYiCM6BDV4s--22" value="&lt;span style=&quot;font-size: 13px&quot;&gt;afficher la description&lt;/span&gt;" style="text;html=1;strokeColor=none;fillColor=none;align=center;verticalAlign=middle;whiteSpace=wrap;rounded=0;" vertex="1" parent="1">
          <mxGeometry x="366" y="490" width="95" height="20" as="geometry" />
        </mxCell>
        <mxCell id="_dTATX6zxYiCM6BDV4s--23" value="&lt;font style=&quot;font-size: 13px&quot;&gt;modifier&lt;/font&gt;" style="text;html=1;strokeColor=none;fillColor=none;align=center;verticalAlign=middle;whiteSpace=wrap;rounded=0;" vertex="1" parent="1">
          <mxGeometry x="547.5" y="670" width="95" height="20" as="geometry" />
        </mxCell>
        <mxCell id="_dTATX6zxYiCM6BDV4s--24" value="&lt;font style=&quot;font-size: 13px&quot;&gt;supprimer&lt;/font&gt;" style="text;html=1;strokeColor=none;fillColor=none;align=center;verticalAlign=middle;whiteSpace=wrap;rounded=0;" vertex="1" parent="1">
          <mxGeometry x="547.5" y="780" width="95" height="20" as="geometry" />
        </mxCell>
        <mxCell id="_dTATX6zxYiCM6BDV4s--26" value="" style="endArrow=none;html=1;" edge="1" parent="1">
          <mxGeometry width="50" height="50" relative="1" as="geometry">
            <mxPoint x="90" y="390" as="sourcePoint" />
            <mxPoint x="340" y="230" as="targetPoint" />
          </mxGeometry>
        </mxCell>
        <mxCell id="_dTATX6zxYiCM6BDV4s--28" value="" style="endArrow=none;html=1;" edge="1" parent="1">
          <mxGeometry width="50" height="50" relative="1" as="geometry">
            <mxPoint x="90" y="410" as="sourcePoint" />
            <mxPoint x="340" y="340" as="targetPoint" />
          </mxGeometry>
        </mxCell>
        <mxCell id="_dTATX6zxYiCM6BDV4s--29" value="" style="endArrow=none;html=1;" edge="1" parent="1">
          <mxGeometry width="50" height="50" relative="1" as="geometry">
            <mxPoint x="90" y="430" as="sourcePoint" />
            <mxPoint x="340" y="450" as="targetPoint" />
          </mxGeometry>
        </mxCell>
        <mxCell id="_dTATX6zxYiCM6BDV4s--30" value="" style="endArrow=none;html=1;" edge="1" parent="1">
          <mxGeometry width="50" height="50" relative="1" as="geometry">
            <mxPoint x="90" y="450" as="sourcePoint" />
            <mxPoint x="160" y="530" as="targetPoint" />
          </mxGeometry>
        </mxCell>
        <mxCell id="_dTATX6zxYiCM6BDV4s--31" value="" style="endArrow=none;html=1;" edge="1" parent="1">
          <mxGeometry width="50" height="50" relative="1" as="geometry">
            <mxPoint x="740" y="390" as="sourcePoint" />
            <mxPoint x="490" y="230" as="targetPoint" />
          </mxGeometry>
        </mxCell>
        <mxCell id="_dTATX6zxYiCM6BDV4s--32" value="" style="endArrow=none;html=1;" edge="1" parent="1">
          <mxGeometry width="50" height="50" relative="1" as="geometry">
            <mxPoint x="740" y="410" as="sourcePoint" />
            <mxPoint x="490" y="340" as="targetPoint" />
          </mxGeometry>
        </mxCell>
        <mxCell id="_dTATX6zxYiCM6BDV4s--33" value="" style="endArrow=none;html=1;" edge="1" parent="1">
          <mxGeometry width="50" height="50" relative="1" as="geometry">
            <mxPoint x="740" y="430" as="sourcePoint" />
            <mxPoint x="490" y="450" as="targetPoint" />
          </mxGeometry>
        </mxCell>
        <mxCell id="_dTATX6zxYiCM6BDV4s--34" value="" style="endArrow=none;html=1;" edge="1" parent="1">
          <mxGeometry width="50" height="50" relative="1" as="geometry">
            <mxPoint x="740" y="450" as="sourcePoint" />
            <mxPoint x="670" y="530" as="targetPoint" />
          </mxGeometry>
        </mxCell>
        <mxCell id="_dTATX6zxYiCM6BDV4s--35" value="" style="endArrow=none;html=1;" edge="1" parent="1">
          <mxGeometry width="50" height="50" relative="1" as="geometry">
            <mxPoint x="740" y="470" as="sourcePoint" />
            <mxPoint x="670" y="640" as="targetPoint" />
          </mxGeometry>
        </mxCell>
        <mxCell id="_dTATX6zxYiCM6BDV4s--36" value="" style="endArrow=none;html=1;" edge="1" parent="1">
          <mxGeometry width="50" height="50" relative="1" as="geometry">
            <mxPoint x="740" y="500" as="sourcePoint" />
            <mxPoint x="670" y="750" as="targetPoint" />
          </mxGeometry>
        </mxCell>
      </root>
    </mxGraphModel>
  </diagram>
</mxfile>
